<svg version="1.1" xmlns="http://www.w3.org/2000/svg" x="0"
     y="0" width="100" height="100" viewBox="0, 0, 100, 100">
    <g id="Layer_1">
        <path
            d="M97.458,46.668 C99.763,44.421 100.577,41.124 99.582,38.062 C98.588,35 95.991,32.811 92.805,32.348 L68.5,28.816 C68.455,28.81 68.417,28.782 68.397,28.742 L57.528,6.718 C56.104,3.831 53.219,2.037 50,2.037 C46.78,2.037 43.896,3.831 42.472,6.718 L31.602,28.742 C31.582,28.782 31.544,28.809 31.5,28.816 L7.194,32.348 C4.009,32.811 1.412,35 0.418,38.062 C-0.577,41.124 0.237,44.421 2.542,46.668 L20.129,63.812 C20.161,63.843 20.176,63.888 20.168,63.932 L16.016,88.139 C15.472,91.312 16.752,94.458 19.356,96.35 C21.961,98.243 25.349,98.487 28.198,96.989 L49.937,85.56 C49.976,85.539 50.024,85.54 50.063,85.56 L71.803,96.989 C73.042,97.641 74.383,97.963 75.717,97.963 C77.451,97.963 79.173,97.419 80.644,96.35 C83.248,94.458 84.527,91.312 83.984,88.139 L79.832,63.932 C79.824,63.888 79.839,63.843 79.871,63.812 L97.458,46.668 z M71.691,65.328 L75.843,89.535 C75.854,89.599 75.857,89.618 75.788,89.668 C75.72,89.717 75.703,89.708 75.645,89.678 L53.906,78.248 C51.46,76.963 48.539,76.963 46.092,78.248 L24.353,89.677 C24.296,89.707 24.278,89.717 24.21,89.667 C24.142,89.618 24.145,89.599 24.156,89.535 L28.308,65.327 C28.775,62.603 27.872,59.826 25.893,57.896 L8.307,40.753 C8.26,40.708 8.246,40.694 8.272,40.614 C8.299,40.534 8.318,40.531 8.382,40.521 L32.687,36.99 C35.423,36.592 37.786,34.876 39.009,32.397 L49.878,10.373 C49.907,10.315 49.915,10.297 50,10.297 C50.084,10.297 50.093,10.315 50.121,10.373 L60.991,32.397 C62.214,34.876 64.577,36.593 67.312,36.99 L91.618,40.521 C91.682,40.531 91.701,40.534 91.727,40.614 C91.753,40.694 91.739,40.708 91.693,40.753 L74.105,57.897 C72.127,59.826 71.224,62.604 71.691,65.328 z"
            fill="#CD7F32"/>
        <g>
            <text transform="matrix(0.125, 0, 0, 0.125, 50.038, 58.938)">
                <tspan x="-357.154" y="-182.5" font-family="Chalkboard" font-size="144" fill="#FFFFFF">DIFFERENT
                </tspan>
            </text>
            <text transform="matrix(0.125, 0, 0, 0.125, 50.038, 58.938)">
                <tspan x="-307.154" y="-42.5" font-family="Chalkboard" font-size="144" fill="#FFFFFF">OBJECTS
                </tspan>
            </text>
            <text transform="matrix(0.125, 0, 0, 0.125, 51.937, 70.438)">
                <tspan x="-121.236" y="49.5" font-family="Chalkboard" font-size="178" fill="#FFFFFF">25
                </tspan>
            </text>
        </g>
    </g>
</svg>
