<svg version="1.1" xmlns="http://www.w3.org/2000/svg" x="0"
     y="0" width="100" height="100" viewBox="0, 0, 800, 800">
    <g id="Layer_1">
        <path
            d="M779.667,373.344 C798.106,355.367 804.618,328.988 796.659,304.496 C788.701,280.003 767.927,262.489 742.444,258.785 L547.999,230.53 C547.643,230.479 547.338,230.255 547.18,229.935 L460.227,53.742 C448.832,30.649 425.753,16.299 399.998,16.299 C374.243,16.299 351.168,30.649 339.773,53.742 L252.816,229.935 C252.658,230.255 252.354,230.475 251.998,230.53 L57.556,258.785 C32.073,262.489 11.299,280.003 3.341,304.496 C-4.618,328.988 1.894,355.367 20.333,373.344 L161.032,510.493 C161.289,510.742 161.407,511.102 161.344,511.455 L128.13,705.114 C123.776,730.495 134.018,755.666 154.85,770.802 C175.687,785.944 202.789,787.897 225.582,775.915 L399.495,684.483 C399.811,684.315 400.193,684.318 400.508,684.483 L574.422,775.915 C584.337,781.128 595.064,783.701 605.739,783.701 C619.604,783.701 633.381,779.355 645.15,770.802 C665.982,755.666 676.22,730.495 671.87,705.11 L638.656,511.455 C638.593,511.102 638.714,510.742 638.968,510.493 L779.667,373.344 z M573.526,522.622 L606.741,716.277 C606.829,716.791 606.855,716.945 606.308,717.342 C605.761,717.738 605.621,717.665 605.162,717.423 L431.245,625.987 C411.679,615.705 388.314,615.705 368.74,625.987 L194.827,717.419 C194.368,717.658 194.228,717.735 193.681,717.338 C193.134,716.942 193.16,716.788 193.248,716.277 L226.463,522.618 C230.2,500.827 222.979,478.607 207.146,463.171 L66.455,326.025 C66.084,325.662 65.97,325.556 66.179,324.913 C66.389,324.271 66.543,324.249 67.057,324.172 L261.498,295.917 C283.38,292.738 302.286,279.005 312.069,259.178 L399.025,82.981 C399.257,82.519 399.323,82.375 399.998,82.375 C400.674,82.375 400.743,82.519 400.971,82.981 L487.928,259.178 C497.714,279.005 516.616,292.741 538.498,295.917 L732.94,324.172 C733.454,324.249 733.608,324.271 733.817,324.913 C734.026,325.556 733.912,325.666 733.542,326.025 L592.843,463.175 C577.014,478.607 569.793,500.831 573.526,522.622 z"
            fill="#FFD700"/>
        <g>
            <text transform="matrix(1, 0, 0, 1, 415, 471.5)">
                <tspan x="-303.354" y="-162.5" font-family="Chalkboard" font-size="108" fill="#FFFFFF">PLANETARY</tspan>
                <tspan x="-243.354" y="-42.5" font-family="Chalkboard" font-size="108" fill="#FFFFFF">NEBULAE</tspan>
            </text>
            <text transform="matrix(1, 0, 0, 1, 415, 471.5)">
                <tspan x="-171.236" y="149.5" font-family="Chalkboard" font-size="178" fill="#FFFFFF">500
                </tspan>
            </text>
        </g>
    </g>
</svg>
